<?xml version="1.0" encoding="utf-8"?>
<!-- Generator: Adobe Illustrator 26.1.0, SVG Export Plug-In . SVG Version: 6.00 Build 0)  -->
<svg version="1.1" id="Layer_1" focusable="false" xmlns="http://www.w3.org/2000/svg"
	 x="0px" y="0px" viewBox="0 0 125.47 108.18" style="enable-background:new 0 0 125.47 108.18;"
	 xml:space="preserve">
<style type="text/css">
	.st0{fill:none;}
	.st1{fill:#D7E7E7;}
	.st2{fill:#80EA6E;}
	.st3{fill:#6DB33F;}
</style>
<path class="st0" d="M82.88,65.92c11.78-1.69,19.96-12.62,18.26-24.4s-12.62-19.96-24.4-18.26c-5.48,0.79-10.44,3.65-13.87,8
	C75.06,38.61,82.61,51.7,82.88,65.92z"/>
<path class="st1" d="M61.16,55.38c4.4,7.63,13.01,11.8,21.72,10.54c-0.27-14.22-7.82-27.31-20-34.66
	C57.41,38.19,56.73,47.75,61.16,55.38z"/>
<path class="st1" d="M72.13,80.56l-6.35,8.65L48.2,79.05l4.35-9.83C50.82,67.31,49.29,65.23,48,63c-1.28-2.24-2.32-4.61-3.12-7.07
	l-10.7-1.17v-20.3l10.67-1.17c0.84-2.61,1.97-5.11,3.38-7.46c-2.24-0.37-4.5-0.56-6.77-0.56C18.56,25.26-0.01,43.82-0.01,66.72
	s18.55,41.47,41.45,41.47c17.26,0.01,32.72-10.68,38.81-26.83C77.52,81.4,74.8,81.13,72.13,80.56z"/>
<path class="st2" d="M125.47,54.75v-20.3l-10.7-1.15c-1.57-4.94-4.19-9.47-7.68-13.3l4.34-9.83L93.86,0l-6.35,8.65
	c-5.07-1.09-10.3-1.09-15.37,0L65.78,0L48.22,10.16l4.3,9.84c-1.62,1.8-3.06,3.76-4.3,5.85c5.2,0.85,10.19,2.69,14.7,5.43
	c7.36-9.35,20.91-10.97,30.26-3.6s10.97,20.91,3.6,30.26c-3.42,4.35-8.39,7.21-13.87,8c0,0.27,0,0.54,0,0.81
	c0.01,5-0.9,9.95-2.66,14.63c2.44-0.03,4.87-0.3,7.26-0.8l6.35,8.63l17.56-10.14l-4.29-9.82c3.47-3.84,6.09-8.38,7.68-13.31
	L125.47,54.75z"/>
<path class="st3" d="M82.88,65.92c-11.77,1.72-22.7-6.42-24.42-18.19c-0.86-5.86,0.74-11.82,4.42-16.47
	c-4.51-2.74-9.5-4.58-14.7-5.43c-1.41,2.35-2.54,4.85-3.38,7.46l-10.63,1.17v20.3l10.68,1.15c0.8,2.47,1.86,4.84,3.15,7.09
	c1.3,2.24,2.83,4.33,4.57,6.24l-4.37,9.81l17.58,10.16l6.35-8.65c2.67,0.57,5.39,0.84,8.11,0.8c1.76-4.68,2.67-9.63,2.66-14.63
	C82.9,66.46,82.89,66.19,82.88,65.92z"/>
</svg>
